<svg version="1.1" id="Layer_1" xmlns="http://www.w3.org/2000/svg" xmlns:xlink="http://www.w3.org/1999/xlink" x="0px" y="0px"
	 width="100%" viewBox="0 0 1024 1024" enable-background="new 0 0 1024 1024" xml:space="preserve">
<path fill="#000000" opacity="1.000000" stroke="none" 
	d="
M135.819260,488.164185 
	C126.470612,478.865326 118.940628,468.954590 116.252846,455.945770 
	C109.328102,422.430145 126.124542,393.098541 157.943756,386.373505 
	C162.303329,385.452087 166.848068,384.992584 171.304169,385.011322 
	C194.944611,385.110687 218.584137,385.428497 242.223801,385.687897 
	C242.872253,385.695007 243.518570,385.896484 244.552322,386.073486 
	C242.961517,389.779510 239.561142,391.473816 236.963730,393.750458 
	C231.695816,398.367920 226.575455,403.121246 221.794968,408.225250 
	C219.686432,410.476532 217.383301,411.288727 214.303375,411.267059 
	C199.149155,411.160339 183.993134,411.221985 168.838303,411.315826 
	C151.449768,411.423523 140.626480,422.431213 140.194580,439.681091 
	C139.891983,451.766510 144.083145,461.503662 152.649170,470.024994 
	C175.197708,492.455963 197.417465,515.217468 219.763504,537.851929 
	C224.246033,542.392273 224.242340,542.407593 219.474136,547.008118 
	C216.119308,550.244934 212.560760,553.294556 209.435913,556.738770 
	C206.602249,559.862000 204.870193,558.405457 202.610794,556.098999 
	C181.286606,534.330688 159.890503,512.632874 138.515045,490.914764 
	C137.697250,490.083893 136.878479,489.253998 135.819260,488.164185 
z"/>
<path fill="#000000" opacity="1.000000" stroke="none" 
	d="
M286.829407,514.191589 
	C294.715546,523.322632 294.684143,523.291626 286.403412,531.678467 
	C265.451508,552.898865 244.539429,574.158569 223.593567,595.384949 
	C212.510056,606.616882 198.982071,611.970581 183.272842,612.358276 
	C169.656906,612.694397 156.303894,612.089844 144.090393,604.991211 
	C125.790382,594.354980 115.607964,578.485657 115.070229,557.390808 
	C114.454727,533.245728 114.911591,509.073212 114.920914,484.912628 
	C114.921158,484.279877 115.134071,483.647186 115.231758,483.103699 
	C117.097351,482.291168 117.845909,483.698730 118.692528,484.586792 
	C124.900452,491.098175 130.994431,497.719452 137.269394,504.164917 
	C139.113068,506.058624 139.332977,508.151733 139.372116,510.539001 
	C139.609650,525.029419 140.350769,539.526367 140.093613,554.006470 
	C139.748840,573.420593 152.623184,585.558777 172.656754,586.741089 
	C189.914078,587.759521 203.959961,582.505798 215.990799,569.728455 
	C234.599640,549.965027 254.020721,530.964539 273.173737,511.716522 
	C279.047302,505.813812 279.161499,505.928162 284.880890,512.107178 
	C285.446808,512.718567 286.020081,513.323059 286.829407,514.191589 
z"/>
<path fill="#000000" opacity="1.000000" stroke="none" 
	d="
M226.756943,450.757019 
	C213.892776,463.842041 201.549316,476.940796 188.586578,489.438385 
	C185.538315,492.377167 183.642822,492.344666 180.996506,489.214600 
	C177.881454,485.530090 174.481277,482.071045 171.033142,478.689240 
	C168.766083,476.465881 168.739594,474.983917 171.138763,472.605042 
	C193.620010,450.314087 216.585220,428.476593 237.987930,405.145233 
	C259.113708,382.115723 290.730499,379.645172 313.647522,392.630005 
	C331.344513,402.657227 341.028137,418.092285 341.294556,438.684814 
	C341.568359,459.846924 341.398834,481.014893 341.382416,502.180267 
	C341.381287,503.612640 341.850769,505.161591 341.186523,506.026215 
	C335.170929,500.487152 329.354523,494.631470 322.998444,489.436035 
	C317.852264,485.229584 316.452911,480.358307 316.383789,473.854919 
	C316.265289,462.703552 315.733490,451.539612 315.888885,440.381683 
	C316.146576,421.880890 301.076416,409.697479 282.112091,410.624115 
	C270.230438,411.204620 260.844452,416.165619 252.783386,424.674530 
	C244.420151,433.502289 235.619278,441.915436 226.756943,450.757019 
z"/>
<path fill="#000000" opacity="1.000000" stroke="none" 
	d="
M248.067307,611.412598 
	C239.777451,611.222046 231.986496,612.517456 224.170914,611.741516 
	C223.196030,609.298462 225.071793,608.219299 226.255508,607.055298 
	C232.550385,600.865723 238.995346,594.828491 245.273544,588.622375 
	C246.994415,586.921265 248.854980,586.548340 251.131439,586.566101 
	C262.962128,586.658325 274.793884,586.688354 286.624878,586.642151 
	C304.402527,586.572693 315.168854,576.029297 315.700836,558.128540 
	C315.864105,552.635376 315.709991,547.132996 315.712250,541.634827 
	C315.715332,534.076172 312.849487,527.869934 307.531372,522.462036 
	C287.087555,501.673157 266.784149,480.746216 246.448730,459.850922 
	C244.835403,458.193176 243.378281,456.383423 241.501404,454.249603 
	C246.570847,448.468018 251.961060,443.347137 257.609528,438.489410 
	C259.246033,437.082092 260.355560,438.461456 261.368103,439.565491 
	C283.111237,463.273743 307.049805,484.850708 328.603455,508.735413 
	C337.181671,518.241394 341.642914,529.525635 341.329102,542.461426 
	C341.107544,551.592957 342.091919,560.746765 340.308960,569.851440 
	C335.858337,592.578796 316.964783,609.290466 293.976166,611.528625 
	C278.784424,613.007568 263.693420,610.506409 248.067307,611.412598 
z"/>
<path fill="#000000" opacity="1.000000" stroke="none" 
	d="
M630.600830,420.009827 
	C630.593140,415.346985 630.706177,411.177094 630.537537,407.018616 
	C630.425049,404.245819 631.469116,403.024963 634.249390,403.058685 
	C639.079773,403.117279 643.912292,403.108917 648.742554,403.035278 
	C651.686707,402.990417 652.997192,404.328186 652.959473,407.255463 
	C652.912231,410.919464 653.017090,414.585144 653.021729,418.250153 
	C653.056519,445.739441 653.084045,473.228760 653.110840,500.718048 
	C653.117249,507.319305 653.089355,507.341858 646.424011,507.372070 
	C628.893982,507.451477 629.036438,507.364166 619.857483,492.391724 
	C610.109924,476.491699 600.058472,460.777924 590.126770,444.990997 
	C589.530151,444.042664 588.818420,443.166687 588.714539,443.023102 
	C588.714539,455.232880 588.645508,467.969513 588.740356,480.704926 
	C588.797363,488.362366 589.110962,496.017914 589.306702,503.674377 
	C589.359253,505.725861 588.877075,507.324005 586.351807,507.317566 
	C580.051636,507.301514 573.751465,507.312256 567.051331,507.312256 
	C567.051331,472.697205 567.051331,438.488831 567.051331,403.874695 
	C573.671631,402.644196 580.288513,403.013733 586.888306,403.355713 
	C589.431274,403.487488 590.276062,405.763428 591.431824,407.570892 
	C603.633301,426.651611 615.835754,445.731750 628.068054,464.792694 
	C628.571777,465.577576 628.871399,466.664093 630.601807,466.969971 
	C630.601807,451.401642 630.601807,435.954651 630.600830,420.009827 
z"/>
<path fill="#000000" opacity="1.000000" stroke="none" 
	d="
M667.928101,607.000000 
	C667.914429,582.502441 667.888184,558.504883 667.894470,534.507324 
	C667.896423,526.991150 667.936646,526.992065 675.693787,526.987915 
	C679.026733,526.986145 682.363708,527.079834 685.691589,526.947510 
	C689.108032,526.811707 690.393372,528.238708 690.343018,531.690063 
	C690.194824,541.853516 690.437561,552.023438 690.227295,562.184692 
	C690.145142,566.157043 691.160706,567.859802 695.500427,567.727600 
	C704.990723,567.438538 714.497253,567.539490 723.994141,567.679382 
	C727.429138,567.729980 728.742065,566.494019 728.693848,563.017090 
	C728.550598,552.686829 728.846436,542.347168 728.539246,532.023987 
	C728.416260,527.889038 729.939270,526.765259 733.706299,526.936584 
	C737.862732,527.125671 742.038452,527.007874 746.201904,526.888733 
	C749.192200,526.803223 750.318481,528.101440 750.312866,531.073181 
	C750.252319,563.069824 750.251770,595.066589 750.283936,627.063354 
	C750.286865,629.986511 749.159424,631.348999 746.147583,631.274658 
	C741.984070,631.171875 737.805725,631.083252 733.652588,631.319031 
	C729.861206,631.534180 728.415955,630.411499 728.535461,626.285400 
	C728.848816,615.462158 728.501465,604.620972 728.723816,593.793274 
	C728.809448,589.623413 727.309570,588.248474 723.220886,588.347473 
	C714.227112,588.565247 705.220337,588.571411 696.226990,588.343018 
	C691.862488,588.232117 690.019226,589.358887 690.190613,594.203247 
	C690.561707,604.688721 690.108276,615.201599 690.372498,625.693665 
	C690.485596,630.182678 688.831421,631.627075 684.546326,631.319946 
	C680.566833,631.034790 676.545349,631.111389 672.553772,631.288025 
	C669.009644,631.445007 667.864990,629.825256 667.926331,626.497742 
	C668.042908,620.167297 667.939880,613.832825 667.928101,607.000000 
z"/>
<path fill="#000000" opacity="1.000000" stroke="none" 
	d="
M682.265869,502.881042 
	C672.623291,495.113800 668.403503,486.648407 668.767395,475.633606 
	C675.077942,474.527557 681.518372,475.043610 687.930725,475.285461 
	C689.695190,475.351959 690.152283,477.048462 690.778076,478.420135 
	C696.790649,491.600739 712.145386,491.507538 720.863892,487.735657 
	C724.913879,485.983551 726.999023,482.382507 727.194153,478.221802 
	C727.387695,474.095032 724.911438,471.069336 721.286743,469.053375 
	C715.965454,466.093750 709.991333,465.139252 704.244202,463.524323 
	C698.304443,461.855316 692.425659,460.057556 686.830994,457.441498 
	C676.813232,452.757202 670.615051,445.286865 670.467224,433.849792 
	C670.311523,421.805054 674.551270,411.857635 685.809753,406.257233 
	C700.134033,399.131836 714.892273,398.243195 729.585449,405.124573 
	C739.672302,409.848663 744.405762,418.542480 746.025879,429.225220 
	C746.397156,431.672821 745.320801,432.607086 743.020630,432.597717 
	C738.691528,432.580109 734.360046,432.507568 730.033936,432.622070 
	C727.594299,432.686615 726.612000,431.267914 725.566162,429.389740 
	C720.442810,420.188812 711.253662,416.803101 701.296570,420.373779 
	C696.382080,422.136139 692.855591,425.402710 692.477112,430.785614 
	C692.094299,436.230194 695.755127,439.586914 700.284241,441.254974 
	C707.130981,443.776672 714.254944,445.550659 721.274719,447.595459 
	C725.604004,448.856537 729.729248,450.583099 733.788025,452.543793 
	C752.551697,461.607971 751.929688,484.928711 741.596497,496.340973 
	C733.916687,504.822845 724.190918,508.876495 712.854980,509.371887 
	C702.222229,509.836548 691.852173,509.104950 682.265869,502.881042 
z"/>
<path fill="#000000" opacity="1.000000" stroke="none" 
	d="
M805.015808,421.395874 
	C807.860352,412.770050 813.938354,407.906525 821.640015,404.737366 
	C834.890564,399.284851 848.202698,398.851898 861.303284,405.020935 
	C872.342468,410.219238 876.971375,419.693390 878.113403,431.772400 
	C872.370239,433.470398 866.697388,432.156342 861.156921,432.616699 
	C859.133667,432.784760 858.669312,430.762146 857.895020,429.306610 
	C852.731628,419.600128 840.171509,416.083496 830.744507,421.740997 
	C826.862122,424.070923 824.938965,427.485168 825.112305,432.134216 
	C825.288025,436.846344 828.257019,439.530518 832.030396,441.058655 
	C836.783875,442.983795 841.808655,444.272461 846.769958,445.641541 
	C851.907104,447.059021 856.967346,448.651184 861.915649,450.645294 
	C872.387817,454.865448 879.774292,461.841492 881.104126,473.472107 
	C882.448853,485.232239 877.587524,494.529907 868.247009,501.583099 
	C853.774048,512.512024 827.688965,512.417969 813.236389,501.449005 
	C804.883423,495.109406 802.092102,486.180237 800.963745,475.810059 
	C807.607788,474.543549 814.021240,474.976501 820.415344,475.359589 
	C822.162354,475.464264 822.593384,477.163635 823.306946,478.482391 
	C829.024536,489.048096 842.711792,493.181641 853.491272,487.609711 
	C857.370056,485.604797 859.510742,482.363892 859.592590,478.015869 
	C859.674194,473.682892 857.048157,470.875671 853.488037,469.003021 
	C848.144714,466.192413 842.169495,465.180054 836.464417,463.396149 
	C831.867126,461.958557 827.175598,460.730011 822.734131,458.902649 
	C805.191528,451.685303 799.697327,440.092590 805.015808,421.395874 
z"/>
<path fill="#000000" opacity="1.000000" stroke="none" 
	d="
M600.502930,525.916870 
	C612.217407,525.023254 623.286621,525.529846 633.521423,531.059692 
	C645.547302,537.557312 651.874756,547.809998 653.846313,561.954773 
	C646.477966,561.954773 639.717285,561.984741 632.957336,561.931946 
	C631.424377,561.919983 630.672180,560.684387 630.072937,559.467163 
	C623.510864,546.138550 612.383728,544.880127 602.494690,546.667358 
	C590.654907,548.807068 585.845093,557.873230 583.581299,568.626648 
	C581.878357,576.715759 582.072571,584.795898 584.237366,592.822754 
	C586.907654,602.723816 593.089600,609.577515 603.093689,611.366333 
	C613.931763,613.304260 623.661682,610.464233 630.035156,600.443665 
	C630.956909,598.994385 631.755188,597.653442 633.784546,597.669983 
	C640.077271,597.721313 646.370605,597.688782 653.279358,597.688782 
	C651.858521,606.003967 649.130127,612.996338 643.614624,618.249084 
	C628.436829,632.703918 610.392029,636.177856 590.929749,629.306091 
	C572.316895,622.734192 562.100891,608.907349 559.539551,589.188660 
	C557.908203,576.629883 559.430359,564.601440 564.278381,553.065186 
	C570.926941,537.244446 583.542786,528.960693 600.502930,525.916870 
z"/>
<path fill="#000000" opacity="1.000000" stroke="none" 
	d="
M483.590637,581.999817 
	C483.593170,565.168762 483.708008,548.836487 483.523224,532.507629 
	C483.478333,528.541077 484.366425,526.901672 488.721985,526.946594 
	C506.383728,527.128906 524.050720,527.087952 541.711914,526.848083 
	C546.197937,526.787170 547.358765,528.440430 547.369202,532.684448 
	C547.405396,547.389343 547.541626,547.390808 532.845764,547.393494 
	C525.346802,547.394836 517.844971,547.509583 510.350128,547.332825 
	C506.777954,547.248657 505.090546,548.358093 505.304230,552.169739 
	C505.527710,556.156616 505.539520,560.177063 505.298676,564.161987 
	C505.066101,568.010315 506.788177,569.027954 510.340729,568.961426 
	C519.669678,568.786560 529.005188,568.972900 538.334778,568.817383 
	C541.881592,568.758240 543.453735,569.868286 543.369019,573.665161 
	C542.978882,591.138672 545.844788,587.704895 529.408325,587.994812 
	C522.578979,588.115356 515.744446,587.979919 508.912781,587.909058 
	C507.130127,587.890564 505.415283,587.856750 505.403717,590.280884 
	C505.372864,596.740906 505.393219,603.201172 505.393219,609.596252 
	C508.499603,610.605957 511.125946,610.392639 513.775452,610.351257 
	C523.770264,610.195007 533.767883,610.213562 543.762573,610.049744 
	C547.145264,609.994324 548.588745,611.278076 548.382385,614.774963 
	C548.157043,618.594482 548.161499,622.447266 548.381348,626.267456 
	C548.587952,629.856445 547.379395,631.349243 543.596375,631.323242 
	C525.266541,631.196838 506.934631,631.182373 488.605164,631.335144 
	C484.564026,631.368774 483.517181,629.762024 483.555664,625.993408 
	C483.703613,611.497009 483.601532,596.997925 483.590637,581.999817 
z"/>
<path fill="#000000" opacity="1.000000" stroke="none" 
	d="
M505.000275,507.386139 
	C498.179962,507.385681 491.859589,507.385681 485.597046,507.385681 
	C483.871002,504.730255 484.161743,502.007812 484.155823,499.419403 
	C484.087860,469.756836 484.065308,440.094177 484.080200,410.431519 
	C484.083771,403.339630 484.168304,403.539764 491.285980,403.527191 
	C508.111694,403.497498 524.936829,403.226288 541.762634,403.120178 
	C548.316833,403.078827 548.321289,403.161377 548.326416,409.832458 
	C548.328735,412.832031 548.175842,415.838989 548.338623,418.829254 
	C548.529419,422.333405 546.973206,423.473511 543.592468,423.431732 
	C533.428833,423.306183 523.262451,423.400787 513.097107,423.415588 
	C506.329071,423.425476 506.327942,423.430145 506.320038,430.415894 
	C506.316040,433.915436 506.454163,437.421906 506.277252,440.912537 
	C506.098602,444.437225 507.743805,445.647461 511.053741,445.624634 
	C520.385254,445.560364 529.721741,445.784973 539.047668,445.552887 
	C542.826538,445.458862 544.307861,446.354889 544.332642,450.462616 
	C544.415833,464.252411 544.573486,464.253326 530.711365,464.263733 
	C524.045593,464.268738 517.378235,464.351288 510.714783,464.227997 
	C507.552612,464.169495 506.150543,465.295288 506.279999,468.593964 
	C506.456329,473.086273 506.478271,477.598663 506.263489,482.087952 
	C506.093689,485.636383 507.572906,486.727875 510.966949,486.679047 
	C522.296692,486.515991 533.629456,486.566040 544.961060,486.535309 
	C546.265137,486.531769 547.622620,486.100494 549.125366,487.227875 
	C549.125366,493.568909 549.125366,500.128021 549.125366,507.386597 
	C534.384521,507.386597 519.942383,507.386597 505.000275,507.386139 
z"/>
<path fill="#000000" opacity="1.000000" stroke="none" 
	d="
M441.344360,573.000122 
	C441.339325,590.976990 441.229950,608.454834 441.406616,625.929871 
	C441.448517,630.073608 440.076904,631.622498 435.960358,631.337830 
	C432.150421,631.074341 428.291016,631.059387 424.483887,631.343323 
	C420.100983,631.670227 418.717926,629.975342 418.749237,625.611938 
	C418.915070,602.477173 418.818268,579.340576 418.811432,556.204590 
	C418.808838,547.415222 418.807617,547.417175 410.262787,547.409851 
	C404.936523,547.405273 399.607849,547.293457 394.284943,547.423035 
	C391.112885,547.500244 389.710419,546.263184 389.787994,543.047852 
	C390.254822,523.692932 386.545471,527.321350 404.589569,527.114075 
	C424.560181,526.884583 444.535858,527.121338 464.507538,526.947693 
	C468.666656,526.911560 470.427826,527.923157 470.414886,532.498291 
	C470.372711,547.397522 470.539612,547.398376 455.485138,547.400330 
	C452.322662,547.400696 449.152802,547.532227 445.999695,547.359497 
	C442.556244,547.170959 441.224396,548.572815 441.304474,552.028137 
	C441.462524,558.848755 441.347046,565.675720 441.344360,573.000122 
z"/>
<path fill="#000000" opacity="1.000000" stroke="none" 
	d="
M441.346924,493.991058 
	C441.332733,507.372925 441.332611,507.409485 428.550018,507.364166 
	C417.657806,507.325531 418.851562,508.508453 418.831116,497.871490 
	C418.787933,475.378510 418.676239,452.884064 418.902283,430.393311 
	C418.952820,425.363037 417.440674,423.521637 412.360992,423.825500 
	C406.385376,424.182922 400.369354,423.812408 394.372437,423.885986 
	C391.159607,423.925354 389.397583,422.961151 389.557007,419.314026 
	C389.774689,414.333771 389.611389,409.336823 389.611389,404.530914 
	C391.031006,403.018127 392.618164,403.640778 394.046295,403.633331 
	C418.034576,403.507965 442.023468,403.473816 466.010834,403.260010 
	C469.368713,403.230072 470.497009,404.454712 470.325439,407.628265 
	C470.172791,410.452332 470.305206,413.291443 470.298889,416.123871 
	C470.282104,423.648254 470.279175,423.673828 462.565643,423.636292 
	C457.569092,423.611969 452.554657,423.738220 447.581818,423.357910 
	C442.833099,422.994690 441.197754,424.611847 441.250458,429.513092 
	C441.479889,450.837433 441.346893,472.165680 441.346924,493.991058 
z"/>
<path fill="#000000" opacity="1.000000" stroke="none" 
	d="
M764.710693,503.830994 
	C764.687683,472.236176 764.776794,441.127075 764.584106,410.019714 
	C764.553894,405.138367 765.704102,402.918243 770.949524,403.548615 
	C774.393555,403.962524 777.952698,403.898438 781.414246,403.567291 
	C785.963562,403.132080 787.046997,405.132080 787.029053,409.329865 
	C786.897400,440.104858 786.897766,470.880829 787.008911,501.655975 
	C787.024170,505.880066 785.776123,507.779755 781.300171,507.437561 
	C777.165100,507.121368 772.987549,507.363770 768.828674,507.356049 
	C766.717651,507.352142 764.705994,507.205200 764.710693,503.830994 
z"/>
</svg>