<svg version="1.1" id="Layer_1" xmlns="http://www.w3.org/2000/svg" xmlns:xlink="http://www.w3.org/1999/xlink" x="0px" y="0px"
	 width="100%" viewBox="0 0 272 272" enable-background="new 0 0 272 272" xml:space="preserve">
<path fill="currentColor" opacity="1.000000" stroke="none" 
	d="
M126.993210,198.005280 
	C125.403244,199.486801 124.066216,200.719208 122.647911,202.026535 
	C118.728973,200.193222 116.472710,196.734589 113.752609,193.954315 
	C91.382896,171.089722 68.295753,148.930893 46.478004,125.523201 
	C24.656517,102.111511 25.272732,64.180832 48.017353,42.532627 
	C58.561775,32.496506 71.568459,28.190657 85.818855,28.054905 
	C110.136070,27.823257 134.461716,27.753729 158.771927,28.731760 
	C159.246094,28.750837 159.711746,28.981327 160.570145,29.222336 
	C159.116776,32.298550 156.259171,33.839371 154.001083,35.779549 
	C148.431702,40.564823 143.037384,45.524349 138.059845,50.905426 
	C135.697906,53.458858 133.100098,54.283485 129.676300,54.254852 
	C114.682091,54.129471 99.685181,54.187649 84.690353,54.312088 
	C67.320625,54.456242 56.609989,65.494263 56.189907,82.838539 
	C55.901539,94.744461 59.970028,104.371407 68.405113,112.779938 
	C91.177193,135.480270 113.585571,158.545135 136.294540,181.309464 
	C139.335648,184.357986 139.930862,186.267563 136.279465,189.137070 
	C133.022202,191.696854 130.238708,194.859528 126.993210,198.005280 
z"/>
<path fill="currentColor" opacity="1.000000" stroke="none" 
	d="
M201.982391,174.981995 
	C181.067810,196.247986 160.423538,217.283997 139.730682,238.272110 
	C128.669678,249.490936 115.141571,255.002060 99.447838,255.319214 
	C87.938316,255.551834 76.463837,255.613495 65.652832,250.647995 
	C43.782906,240.603119 31.666273,223.653397 31.031645,199.571732 
	C30.413187,176.103500 30.884254,152.606384 30.909025,129.121964 
	C30.910168,128.037323 31.225271,126.952988 31.455784,125.472733 
	C34.315605,126.584473 35.662830,128.762161 37.332512,130.470428 
	C40.590736,133.803970 43.293884,137.828888 46.968189,140.575989 
	C54.677177,146.339645 56.097858,154.104782 55.975937,162.919495 
	C55.817039,174.407806 56.000496,185.904587 56.232971,197.393753 
	C56.631451,217.087250 68.190018,228.481110 87.995522,229.721741 
	C105.325813,230.807327 119.657318,225.892929 131.885483,212.910324 
	C151.175201,192.430466 171.447418,172.878159 191.158722,152.790894 
	C194.028442,149.866440 195.996750,149.415192 198.688736,152.731949 
	C201.413818,156.089478 204.370010,159.270523 207.365799,162.393814 
	C209.883682,165.018875 210.429047,167.291656 207.196045,169.811905 
	C205.371674,171.234085 203.876144,173.078110 201.982391,174.981995 
z"/>
<path fill="currentColor" opacity="1.000000" stroke="none" 
	d="
M232.591888,112.344330 
	C231.559433,102.407387 231.871017,92.899673 231.940887,83.414742 
	C232.087952,63.453358 215.297913,51.696514 195.743011,53.628452 
	C185.162872,54.673725 176.674942,59.555214 169.241089,67.145920 
	C147.914062,88.922989 126.236748,110.356712 104.853256,132.079086 
	C101.573303,135.411011 99.511658,135.374359 96.578598,131.818329 
	C92.890503,127.346939 88.708527,123.282898 83.849785,118.092445 
	C88.442459,113.787064 92.887505,109.848427 97.076614,105.654182 
	C117.086205,85.620041 136.984451,65.474663 157.001877,45.448380 
	C181.565308,20.874094 221.670013,21.974022 244.662704,47.893208 
	C252.919098,57.200474 257.220459,68.253654 257.307465,80.708183 
	C257.457550,102.197205 257.364990,123.688011 257.335358,145.178009 
	C257.333374,146.610153 257.826233,148.156281 256.290009,150.148590 
	C249.355133,141.716995 241.187866,134.744110 233.792465,126.994934 
	C231.506424,124.599533 232.898575,121.232040 232.663437,118.308487 
	C232.516922,116.487015 232.616470,114.645760 232.591888,112.344330 
z"/>
<path fill="currentColor" opacity="1.000000" stroke="none" 
	d="
M253.546448,165.726196 
	C259.279480,184.388824 260.103607,203.091934 253.615356,220.964020 
	C245.504303,243.306274 228.049561,254.648514 204.394211,254.891739 
	C183.599472,255.105530 162.790558,254.254440 141.984665,254.873886 
	C141.367142,254.892258 140.741516,254.637833 140.143036,254.515396 
	C139.457352,252.277756 141.081635,251.293518 142.181763,250.203873 
	C148.216614,244.226410 154.361221,238.359528 160.378754,232.364960 
	C162.408417,230.343079 164.630936,229.548782 167.512421,229.582703 
	C179.338852,229.721970 191.168015,229.718948 202.995560,229.655533 
	C220.252029,229.563034 231.091476,219.069672 231.675674,201.836853 
	C231.873077,196.014114 231.705078,190.179123 231.713730,184.349762 
	C231.724701,176.965057 228.905045,170.912506 223.726776,165.624557 
	C202.749924,144.203339 181.904297,122.653534 161.037628,101.124641 
	C159.911774,99.963051 158.436096,99.004929 158.163284,97.652710 
	C163.218475,92.278976 168.039398,87.038506 173.001022,81.934845 
	C175.094711,79.781242 176.583237,81.711334 177.954437,83.144958 
	C183.134598,88.560959 188.238785,94.050201 193.453186,99.432793 
	C209.794785,116.301399 226.890442,132.429413 242.792923,149.731506 
	C247.114990,154.433990 250.761154,159.546066 253.546448,165.726196 
z"/>
</svg>